<?xml version="1.0" encoding="utf-8"?>
<!-- Generator: Adobe Illustrator 25.2.3, SVG Export Plug-In . SVG Version: 6.00 Build 0)  -->
<svg version="1.1" id="Layer_1" xmlns="http://www.w3.org/2000/svg" xmlns:xlink="http://www.w3.org/1999/xlink" x="0px" y="0px"
	 viewBox="0 0 161.5 26" style="enable-background:new 0 0 161.5 26;" xml:space="preserve">
<style type="text/css">
	.st0{fill:#E11837;}
	.st1{fill:#6D6E71;}
</style>
<g>
	<g>
		<g>
			<path class="st0" d="M20.7,25.8c-1.2,0-2.3-0.5-3-1.3l-7.6-9.9c-0.8-1.1-0.8-2.6,0-3.7l7.6-9.5C18.4,0.5,19.5,0,20.6,0
				c0.7,0,1.4,0.2,1.9,0.5C23.5,1,24,1.8,24.2,2.7c0.2,0.8,0,1.7-0.6,2.4l-6,7.4l6,8.2c0.6,0.7,0.8,1.6,0.6,2.4
				c-0.2,0.9-0.8,1.7-1.6,2.2C22,25.7,21.4,25.8,20.7,25.8z"/>
		</g>
		<g>
			<path class="st0" d="M3.6,25.8c-2,0-3.6-1.4-3.6-3.2V3.2C0,1.4,1.6,0,3.6,0c2,0,3.6,1.4,3.6,3.2v19.4C7.2,24.4,5.6,25.8,3.6,25.8
				z"/>
		</g>
		<g>
			<g>
				<path class="st0" d="M36,25.8c-2,0-3.6-1.4-3.6-3.2V3.2C32.4,1.4,34,0,36,0c2,0,3.6,1.4,3.6,3.2v19.4C39.6,24.4,38,25.8,36,25.8
					z"/>
			</g>
		</g>
		<g>
			<g>
				<path class="st0" d="M56.3,25.8c-2,0-3.6-1.5-3.6-3.2V11.8c0-1.8,1.6-3.2,3.6-3.2c2,0,3.6,1.5,3.6,3.2v10.8
					C59.9,24.3,58.2,25.8,56.3,25.8z"/>
			</g>
		</g>
		<g>
			<g>
				<path class="st0" d="M63.1,6.5H49.4c-2,0-3.6-1.4-3.6-3.2c0-1.8,1.6-3.2,3.6-3.2h13.7c2,0,3.6,1.4,3.6,3.2
					C66.7,5,65.1,6.5,63.1,6.5z"/>
			</g>
		</g>
		<g>
			<path class="st0" d="M68.6,25.8c-2.1,0-3.8-1.7-3.8-3.8s1.7-3.8,3.8-3.8c2.1,0,3.8,1.7,3.8,3.8S70.7,25.8,68.6,25.8z"/>
		</g>
	</g>
	<g>
		<path class="st1" d="M84.9,6c0-0.1,0-0.2,0-0.2c0,0-0.1,0-0.1,0h-2.9V4.5h2.9c0.1,0,0.1,0,0.1,0c0,0,0,0,0-0.1V3.6
			c0-0.1,0-0.1,0-0.2c0,0-0.1,0-0.1,0h-2.9v0c-0.5,0.9-1.3,1.7-2.3,2.4c-0.9,0.6-1.9,1.1-3,1.6l-0.8-1.1c1.4-0.5,2.5-1,3.3-1.7
			c1-0.8,1.6-1.6,1.9-2.6c0-0.1,0-0.1,0-0.1c0,0-0.1-0.1-0.2-0.1h-4.2V0.5h5.1c0.4,0,0.7,0.2,0.8,0.6c0.1,0.3,0,0.7-0.1,1.1h2.4
			c0.1,0,0.1,0,0.1,0c0,0,0-0.1,0-0.1V0h1.4v6.9h-1.4V6z M80.4,12c-0.7-0.6-1-1.3-1-2.1c0-0.9,0.3-1.6,1-2.2
			c0.6-0.6,1.4-0.9,2.3-0.9c0.9,0,1.6,0.3,2.3,0.9c0.7,0.6,1,1.3,1,2.2c0,0.8-0.3,1.5-1,2.1c-0.6,0.6-1.4,0.9-2.2,0.9
			C81.8,12.9,81,12.6,80.4,12z M81.3,8.6c-0.4,0.3-0.5,0.7-0.5,1.2c0,0.5,0.2,0.9,0.5,1.2c0.4,0.3,0.8,0.5,1.4,0.5
			c0.5,0,1-0.2,1.3-0.5c0.4-0.3,0.5-0.7,0.5-1.2c0-0.5-0.2-0.9-0.6-1.2c-0.4-0.3-0.8-0.5-1.3-0.5C82.1,8.1,81.6,8.3,81.3,8.6z"/>
		<path class="st1" d="M90.3,6.6c-0.3,0-0.6-0.1-0.8-0.3c-0.2-0.2-0.3-0.5-0.3-0.8v-5h1.4v4.7c0,0.1,0,0.1,0,0.2
			c0,0,0.1,0.1,0.2,0.1h2c0.5,0,1,0,1.6-0.1c0.5,0,1.1-0.1,1.7-0.2l0.2,1.2c-0.5,0.1-1.1,0.2-1.7,0.2c-0.6,0.1-1.2,0.1-1.7,0.1H90.3
			z M91.3,12.6c-0.3,0-0.6-0.1-0.7-0.3c-0.2-0.2-0.3-0.4-0.3-0.7v-3c0-0.3,0.1-0.5,0.2-0.7c0.2-0.2,0.4-0.3,0.7-0.3h6.3
			c0.3,0,0.5,0.1,0.7,0.3c0.2,0.2,0.3,0.4,0.3,0.7v3.1c0,0.3-0.1,0.5-0.2,0.7c-0.2,0.2-0.4,0.3-0.7,0.3H91.3z M97,8.8
			c0,0-0.1,0-0.1,0h-5c-0.1,0-0.1,0-0.2,0c0,0,0,0.1,0,0.2v2.2c0,0.1,0,0.1,0,0.2c0,0,0.1,0.1,0.1,0.1h5c0,0,0.1,0,0.1-0.1
			c0,0,0.1-0.1,0.1-0.1V9C97.1,8.9,97.1,8.9,97,8.8z M98.4,4.1c0,0,0,0.1,0,0.2V7H97V0h1.4v2.6c0,0.1,0,0.2,0,0.2
			c0,0,0.1,0.1,0.2,0.1h1.7v1.2h-1.8C98.5,4.1,98.4,4.1,98.4,4.1z"/>
		<path class="st1" d="M108.1,6.8c0.9,0,1.6,0.3,2.3,0.9c0.7,0.6,1,1.3,1,2.2c0,0.8-0.3,1.5-1,2.1c-0.7,0.6-1.4,0.9-2.2,0.9
			c-0.9,0-1.6-0.3-2.3-0.9c-0.7-0.6-1-1.3-1-2.1c0-0.8,0.3-1.5,0.8-2.1c0.6-0.6,1.2-0.9,2-1c-0.6-0.3-1.1-0.7-1.5-1.1
			c-0.4-0.4-0.7-0.9-1-1.4c-0.4,0.6-0.8,1.2-1.4,1.7c-0.6,0.5-1.3,1-2,1.3l-0.8-1.1c1.1-0.4,2-0.9,2.6-1.6c0.6-0.7,0.9-1.6,0.9-2.5
			V1.9c0-0.1,0-0.1-0.1-0.2c0,0-0.1,0-0.2,0h-2.4V0.5h6.6v1.2h-2.2c-0.1,0-0.2,0-0.2,0c0,0-0.1,0.1-0.1,0.2V2c0,0.9,0.2,1.7,0.7,2.3
			c0.5,0.6,1.2,1.1,2.2,1.5l-0.8,1H108.1z M106.7,8.6c-0.4,0.3-0.6,0.7-0.6,1.2c0,0.5,0.2,0.9,0.6,1.2c0.4,0.3,0.8,0.5,1.4,0.5
			c0.5,0,0.9-0.2,1.3-0.5c0.4-0.3,0.6-0.7,0.6-1.2c0-0.5-0.2-0.9-0.6-1.2c-0.4-0.3-0.8-0.5-1.3-0.5C107.5,8.1,107.1,8.3,106.7,8.6z
			 M110.1,4.1c0-0.1,0-0.2,0-0.2c0,0,0,0-0.1,0h-2.7V2.7h2.7c0.1,0,0.1,0,0.1,0c0,0,0-0.1,0-0.1V0h1.4v6.8h-1.4V4.1z"/>
		<path class="st1" d="M119.6,6.8v1.8c0,0.1,0,0.1,0,0.2c0,0,0.1,0,0.1,0h4.5V10h-10.6V8.8h4.4c0.1,0,0.1,0,0.1,0c0,0,0-0.1,0-0.2
			V6.8h-2.5c-0.3,0-0.6-0.1-0.8-0.3c-0.2-0.2-0.3-0.4-0.3-0.8V0.4h1.3v2c0,0.1,0,0.1,0,0.2c0,0,0.1,0,0.2,0h5.5c0.1,0,0.1,0,0.1,0
			c0,0,0-0.1,0-0.2V0.4h1.4v5.3c0,0.3-0.1,0.6-0.3,0.8c-0.2,0.2-0.4,0.4-0.7,0.4H119.6z M121.8,3.8c0,0-0.1,0-0.1,0h-5.5
			c-0.1,0-0.1,0-0.2,0c0,0,0,0.1,0,0.2v1.3c0,0.1,0,0.1,0,0.2c0,0,0.1,0,0.2,0h5.4c0.1,0,0.1,0,0.1-0.1c0,0,0.1-0.1,0.1-0.2V4
			C121.9,3.9,121.9,3.8,121.8,3.8z"/>
		<path class="st1" d="M134.7,5c0-0.1,0-0.1,0-0.1c0,0,0,0,0,0h-1.1c0,0-0.1,0-0.1,0c0,0,0,0.1,0,0.2V12h-1.3V8.6
			c-0.5,0.1-1,0.1-1.5,0.2c-0.5,0-1,0.1-1.4,0.1h-1.9c-0.4,0-0.6-0.1-0.8-0.3c-0.2-0.2-0.3-0.5-0.3-0.8V1.6c0-0.3,0.1-0.5,0.3-0.7
			c0.2-0.2,0.4-0.2,0.7-0.2h3.7v1.3h-3.2c0,0-0.1,0-0.1,0c0,0,0,0,0,0.1v5.3c0,0.1,0,0.1,0,0.2c0,0,0.1,0,0.2,0h1.5
			c0.4,0,0.9,0,1.4-0.1c0.4,0,0.9-0.1,1.5-0.1V0.1h1.3v3.4c0,0,0,0.1,0,0.1c0,0,0.1,0,0.1,0h1.1c0,0,0.1,0,0.1,0c0,0,0,0,0,0V0h1.3
			v12.2h-1.3V5z"/>
		<path class="st1" d="M137.9,2h7.2v1.3h-1.3c0.1,0.2,0.3,0.4,0.3,0.7c0.1,0.3,0.1,0.5,0.1,0.8c0,0.8-0.3,1.4-0.8,1.9
			c-0.5,0.5-1.2,0.7-1.9,0.7c-0.8,0-1.4-0.2-1.9-0.7c-0.6-0.5-0.9-1.1-0.9-1.9c0-0.3,0-0.5,0.1-0.8c0.1-0.2,0.2-0.5,0.3-0.6h-1.3V2z
			 M146.3,9.7c0-0.1,0-0.2-0.1-0.2c0,0-0.1-0.1-0.2-0.1h-6.8V8.1h7.5c0.3,0,0.6,0.1,0.8,0.3c0.2,0.2,0.2,0.4,0.2,0.8v3.4h-1.4V9.7z
			 M139.6,0.1h4v1.3h-4V0.1z M140.5,3.7c-0.3,0.3-0.4,0.6-0.4,1c0,0.4,0.1,0.7,0.4,1c0.3,0.3,0.6,0.4,1.1,0.4c0.4,0,0.8-0.1,1-0.4
			c0.3-0.3,0.4-0.6,0.4-1c0-0.4-0.1-0.8-0.4-1c-0.3-0.3-0.6-0.4-1.1-0.4C141.1,3.3,140.8,3.4,140.5,3.7z M147.7,4.1c0,0,0,0.1,0,0.2
			v2.9h-1.4V0h1.4v2.6c0,0.1,0,0.2,0.1,0.2c0,0,0.1,0.1,0.2,0.1h1.7v1.2h-1.8C147.8,4.1,147.7,4.1,147.7,4.1z"/>
		<path class="st1" d="M150.5,8.7h2.4c0.1,0,0.1,0,0.1,0c0,0,0-0.1,0-0.1V4.6h1.4v3.9c0,0.1,0,0.1,0,0.1c0,0,0.1,0,0.1,0h1.3
			c0.1,0,0.1,0,0.1,0c0,0,0-0.1,0-0.1V4.6h1.3v3.9c0,0.1,0,0.1,0,0.1c0,0,0.1,0,0.2,0h3.9V10h-11V8.7z M158.9,2c0-0.1,0-0.2,0-0.2
			c0,0-0.1-0.1-0.1-0.1h-7.4V0.5h8c0.3,0,0.5,0.1,0.7,0.3c0.2,0.2,0.3,0.4,0.3,0.7v5.2h-1.4V2z"/>
	</g>
	<g>
		<g>
			<path class="st1" d="M78.9,19.8v-2.9c0-0.2,0.1-0.3,0.3-0.3c0.2,0,0.3,0.1,0.3,0.3v2.9c0,0.2-0.1,0.3-0.3,0.3
				C79.1,20.2,78.9,20,78.9,19.8z M80.8,20l-1-1.5c-0.1-0.1-0.1-0.3,0-0.4l1-1.5c0.1-0.2,0.3-0.2,0.5-0.1c0.2,0.1,0.2,0.3,0.1,0.5
				l-0.8,1.3l0.8,1.3c0.1,0.2,0.1,0.4-0.1,0.5c-0.1,0-0.1,0.1-0.2,0.1C80.9,20.2,80.8,20.1,80.8,20z"/>
			<path class="st1" d="M84.4,17.1l-0.8,1.5v1.2c0,0.2-0.1,0.3-0.3,0.3c-0.2,0-0.3-0.1-0.3-0.3v-1.2l-0.8-1.5
				c-0.1-0.2,0-0.4,0.1-0.4c0.2-0.1,0.4,0,0.4,0.1l0.6,1.1l0.6-1.1c0.1-0.2,0.3-0.2,0.4-0.1C84.4,16.7,84.5,16.9,84.4,17.1z"/>
			<path class="st1" d="M85.2,18.9v-2c0-0.2,0.1-0.3,0.3-0.3c0.2,0,0.3,0.1,0.3,0.3v2c0,0.3,0.3,0.6,0.6,0.6c0.3,0,0.6-0.3,0.6-0.6
				v-2c0-0.2,0.1-0.3,0.3-0.3c0.2,0,0.3,0.1,0.3,0.3v2c0,0.7-0.6,1.3-1.3,1.3C85.7,20.2,85.2,19.6,85.2,18.9z"/>
			<path class="st1" d="M90.2,20l-1.1-1.9v1.7c0,0.2-0.1,0.3-0.3,0.3c-0.2,0-0.3-0.1-0.3-0.3v-2.9c0-0.1,0.1-0.3,0.2-0.3
				c0.1,0,0.3,0,0.4,0.1l1.1,1.9v-1.7c0-0.2,0.1-0.3,0.3-0.3c0.2,0,0.3,0.1,0.3,0.3v2.9c0,0.1-0.1,0.3-0.2,0.3c0,0-0.1,0-0.1,0
				C90.4,20.1,90.3,20.1,90.2,20z"/>
			<path class="st1" d="M91.6,18.9v-1.1c0-0.7,0.6-1.3,1.2-1.3c0.7,0,1.1,0.4,1.2,1.1c0,0.2-0.1,0.4-0.3,0.4c-0.2,0-0.3-0.1-0.4-0.3
				c-0.1-0.3-0.3-0.5-0.6-0.5c-0.3,0-0.6,0.3-0.6,0.6v1.1c0,0.3,0.3,0.6,0.6,0.6c0.3,0,0.6-0.2,0.6-0.5h-0.5c-0.2,0-0.3-0.1-0.3-0.3
				c0-0.2,0.1-0.3,0.3-0.3h0.8c0.2,0,0.3,0.1,0.3,0.3v0.3c0,0.7-0.6,1.3-1.3,1.3C92.2,20.1,91.6,19.6,91.6,18.9z"/>
			<path class="st1" d="M96.6,20l-1.1-1.9v1.7c0,0.2-0.1,0.3-0.3,0.3c-0.2,0-0.3-0.1-0.3-0.3v-2.9c0-0.1,0.1-0.3,0.2-0.3
				c0.1,0,0.3,0,0.4,0.1l1.1,1.9v-1.7c0-0.2,0.1-0.3,0.3-0.3c0.2,0,0.3,0.1,0.3,0.3v2.9c0,0.1-0.1,0.3-0.2,0.3c0,0-0.1,0-0.1,0
				C96.8,20.1,96.7,20.1,96.6,20z"/>
			<path class="st1" d="M99.1,18.5l-0.4,1.4c0,0.1-0.2,0.2-0.3,0.2c0,0-0.1,0-0.1,0c-0.2-0.1-0.3-0.2-0.2-0.4l0.5-1.4
				c0.1-0.2,0.2-0.3,0.4-0.2C99.1,18.1,99.2,18.3,99.1,18.5z M100.2,20.1C100.2,20.1,100.2,20.1,100.2,20.1c-0.2,0-0.4-0.1-0.4-0.2
				l-0.2-0.7h-0.1c-0.2,0-0.3-0.1-0.3-0.3c0-0.1,0.1-0.3,0.2-0.3L98.9,17c-0.1-0.2,0-0.4,0.2-0.4c0.2-0.1,0.4,0,0.4,0.2l0.9,2.9
				C100.5,19.9,100.4,20.1,100.2,20.1z"/>
			<path class="st1" d="M103,19.8v-1.7l-0.3,0.4c-0.1,0.1-0.2,0.2-0.3,0.2c-0.1,0-0.2-0.1-0.3-0.2l-0.3-0.4v1.7
				c0,0.2-0.1,0.3-0.3,0.3c-0.2,0-0.3-0.1-0.3-0.3v-2.9c0-0.1,0.1-0.3,0.2-0.3c0.1,0,0.3,0,0.4,0.2l0.6,1l0.6-1
				c0.1-0.1,0.2-0.2,0.4-0.1c0.1,0,0.2,0.2,0.2,0.3v2.9c0,0.2-0.1,0.3-0.3,0.3C103.1,20.1,103,20,103,19.8z"/>
			<path class="st1" d="M106.2,18.9v-1c0-0.7,0.6-1.3,1.3-1.3c0.7,0,1.3,0.6,1.3,1.3c0,0.2-0.2,0.3-0.3,0.3c-0.2,0-0.3-0.1-0.3-0.3
				c0-0.3-0.3-0.6-0.6-0.6c-0.3,0-0.6,0.3-0.6,0.6v1c0,0.3,0.3,0.6,0.6,0.6c0.3,0,0.6-0.3,0.6-0.6c0-0.2,0.1-0.3,0.3-0.3
				c0.2,0,0.3,0.1,0.3,0.3c0,0.7-0.6,1.3-1.3,1.3C106.7,20.1,106.2,19.6,106.2,18.9z"/>
			<path class="st1" d="M109.4,17.8c0-0.7,0.6-1.2,1.3-1.2c0.7,0,1.3,0.5,1.3,1.2c0,0.2-0.1,0.3-0.3,0.3c-0.2,0-0.3-0.1-0.3-0.3
				c0-0.3-0.3-0.6-0.6-0.6c-0.3,0-0.6,0.2-0.6,0.6c0,0.2-0.1,0.3-0.3,0.3C109.5,18.1,109.4,18,109.4,17.8z M111.9,18.6v0.2
				c0,0.7-0.6,1.3-1.3,1.3c-0.7,0-1.3-0.6-1.3-1.3v-0.2c0-0.2,0.1-0.3,0.3-0.3c0.2,0,0.3,0.1,0.3,0.3v0.2c0,0.3,0.3,0.6,0.6,0.6
				c0.3,0,0.6-0.3,0.6-0.6v-0.2c0-0.2,0.1-0.3,0.3-0.3C111.7,18.3,111.9,18.5,111.9,18.6z"/>
			<path class="st1" d="M114.8,19.8c0,0.2-0.1,0.3-0.3,0.3h-1.3c-0.2,0-0.3-0.1-0.3-0.3v-2.9c0-0.2,0.1-0.3,0.3-0.3
				c0.2,0,0.3,0.1,0.3,0.3v2.6h0.9C114.7,19.5,114.8,19.6,114.8,19.8z"/>
			<path class="st1" d="M117.6,19.8c0,0.2-0.1,0.3-0.3,0.3H116c-0.2,0-0.3-0.1-0.3-0.3v-2.9c0-0.2,0.1-0.3,0.3-0.3
				c0.2,0,0.3,0.1,0.3,0.3v2.6h0.9C117.4,19.5,117.6,19.6,117.6,19.8z"/>
			<path class="st1" d="M120.6,19.8c0,0.2-0.1,0.3-0.3,0.3h-1.6c-0.2,0-0.3-0.1-0.3-0.3v-2.9c0-0.2,0.1-0.3,0.3-0.3h1.6
				c0.2,0,0.3,0.1,0.3,0.3c0,0.2-0.1,0.3-0.3,0.3H119V18h0.6c0.2,0,0.3,0.1,0.3,0.3c0,0.2-0.1,0.3-0.3,0.3H119v0.8h1.3
				C120.5,19.5,120.6,19.6,120.6,19.8z"/>
			<path class="st1" d="M121.5,18.9v-1.1c0-0.7,0.6-1.3,1.3-1.3c0.7,0,1.1,0.4,1.2,1.1c0,0.2-0.1,0.4-0.3,0.4
				c-0.2,0-0.3-0.1-0.4-0.3c-0.1-0.3-0.3-0.5-0.6-0.5c-0.3,0-0.6,0.3-0.6,0.6v1.1c0,0.3,0.3,0.6,0.6,0.6c0.3,0,0.6-0.2,0.6-0.5h-0.5
				c-0.2,0-0.3-0.1-0.3-0.3c0-0.2,0.1-0.3,0.3-0.3h0.8c0.2,0,0.3,0.1,0.3,0.3v0.3c0,0.7-0.6,1.3-1.3,1.3
				C122,20.1,121.5,19.6,121.5,18.9z"/>
			<path class="st1" d="M127,19.8c0,0.2-0.1,0.3-0.3,0.3h-1.6c-0.2,0-0.3-0.1-0.3-0.3v-2.9c0-0.2,0.1-0.3,0.3-0.3h1.6
				c0.2,0,0.3,0.1,0.3,0.3c0,0.2-0.1,0.3-0.3,0.3h-1.3V18h0.6c0.2,0,0.3,0.1,0.3,0.3c0,0.2-0.1,0.3-0.3,0.3h-0.6v0.8h1.3
				C126.9,19.5,127,19.6,127,19.8z"/>
			<path class="st1" d="M129.5,17.8c0-0.7,0.6-1.2,1.3-1.2c0.7,0,1.3,0.5,1.3,1.2c0,0.2-0.1,0.3-0.3,0.3c-0.2,0-0.3-0.1-0.3-0.3
				c0-0.3-0.3-0.6-0.6-0.6c-0.3,0-0.6,0.2-0.6,0.6c0,0.2-0.1,0.3-0.3,0.3C129.6,18.1,129.5,18,129.5,17.8z M132,18.6v0.2
				c0,0.7-0.6,1.3-1.3,1.3c-0.7,0-1.3-0.6-1.3-1.3v-0.2c0-0.2,0.2-0.3,0.3-0.3c0.2,0,0.3,0.1,0.3,0.3v0.2c0,0.3,0.3,0.6,0.6,0.6
				c0.3,0,0.6-0.3,0.6-0.6v-0.2c0-0.2,0.1-0.3,0.3-0.3C131.8,18.3,132,18.5,132,18.6z"/>
			<path class="st1" d="M135.1,16.9c0,0.2-0.1,0.3-0.3,0.3h-1.3V18h0.6c0.2,0,0.3,0.1,0.3,0.3c0,0.2-0.1,0.3-0.3,0.3h-0.6v1.1
				c0,0.2-0.1,0.3-0.3,0.3c-0.2,0-0.3-0.1-0.3-0.3v-2.9c0-0.2,0.1-0.3,0.3-0.3h1.6C135,16.6,135.1,16.7,135.1,16.9z"/>
		</g>
		<g>
			<path class="st1" d="M78.9,25.7v-2.9c0-0.2,0.1-0.3,0.3-0.3c0.2,0,0.3,0.1,0.3,0.3v2.9c0,0.2-0.1,0.3-0.3,0.3
				C79.1,26,78.9,25.9,78.9,25.7z"/>
			<path class="st1" d="M82.5,25.8L81.3,24v1.7c0,0.2-0.1,0.3-0.3,0.3c-0.2,0-0.3-0.1-0.3-0.3v-2.9c0-0.1,0.1-0.3,0.2-0.3
				c0.1,0,0.3,0,0.4,0.1l1.1,1.9v-1.7c0-0.2,0.1-0.3,0.3-0.3c0.2,0,0.3,0.1,0.3,0.3v2.9c0,0.1-0.1,0.3-0.2,0.3c0,0-0.1,0-0.1,0
				C82.6,26,82.5,25.9,82.5,25.8z"/>
			<path class="st1" d="M86.2,22.8c0,0.2-0.1,0.3-0.3,0.3h-1.3v0.8h0.6c0.2,0,0.3,0.1,0.3,0.3c0,0.2-0.1,0.3-0.3,0.3h-0.6v1.1
				c0,0.2-0.1,0.3-0.3,0.3c-0.2,0-0.3-0.1-0.3-0.3v-2.9c0-0.2,0.1-0.3,0.3-0.3h1.6C86.1,22.5,86.2,22.6,86.2,22.8z"/>
			<path class="st1" d="M86.7,23.7c0-0.7,0.6-1.2,1.3-1.2c0.7,0,1.3,0.5,1.3,1.2c0,0.2-0.1,0.3-0.3,0.3c-0.2,0-0.3-0.1-0.3-0.3
				c0-0.3-0.3-0.6-0.6-0.6c-0.3,0-0.6,0.2-0.6,0.6c0,0.2-0.1,0.3-0.3,0.3C86.9,24,86.7,23.8,86.7,23.7z M89.2,24.5v0.2
				c0,0.7-0.6,1.3-1.3,1.3c-0.7,0-1.3-0.6-1.3-1.3v-0.2c0-0.2,0.1-0.3,0.3-0.3c0.2,0,0.3,0.1,0.3,0.3v0.2c0,0.3,0.3,0.6,0.6,0.6
				c0.3,0,0.6-0.3,0.6-0.6v-0.2c0-0.2,0.1-0.3,0.3-0.3C89.1,24.2,89.2,24.3,89.2,24.5z"/>
			<path class="st1" d="M90.5,23.1v1.1c0.2,0,0.3,0.2,0.3,0.3c0,0.2-0.1,0.3-0.3,0.3v0.8c0,0.2-0.1,0.3-0.3,0.3
				c-0.2,0-0.3-0.1-0.3-0.3v-2.9c0-0.2,0.1-0.3,0.3-0.3h0.3c0.2,0,0.3,0.1,0.3,0.3C90.8,23,90.7,23.1,90.5,23.1z M92.4,25.5
				c0.1,0.1,0.1,0.4-0.1,0.5c-0.1,0-0.1,0.1-0.2,0.1c-0.1,0-0.2,0-0.3-0.1L91,24.7c-0.1-0.1-0.1-0.2,0-0.3c0.1-0.1,0.2-0.2,0.3-0.2
				c0.3,0,0.5-0.2,0.5-0.5c0-0.3-0.2-0.5-0.5-0.5c-0.2,0-0.3-0.1-0.3-0.3c0-0.2,0.1-0.3,0.3-0.3c0.7,0,1.2,0.5,1.2,1.2
				c0,0.5-0.3,0.9-0.6,1.1L92.4,25.5z"/>
			<path class="st1" d="M94.9,25.7v-1.7l-0.3,0.4c-0.1,0.1-0.2,0.2-0.3,0.2c-0.1,0-0.2-0.1-0.3-0.2L93.8,24v1.7
				c0,0.2-0.1,0.3-0.3,0.3c-0.2,0-0.3-0.1-0.3-0.3v-2.9c0-0.1,0.1-0.3,0.2-0.3c0.1,0,0.3,0,0.4,0.2l0.6,1l0.6-1
				c0.1-0.1,0.2-0.2,0.4-0.1c0.1,0,0.2,0.2,0.2,0.3v2.9c0,0.2-0.1,0.3-0.3,0.3C95.1,26,94.9,25.9,94.9,25.7z"/>
			<path class="st1" d="M97.5,24.4L97,25.8c0,0.1-0.2,0.2-0.3,0.2c0,0-0.1,0-0.1,0c-0.2-0.1-0.3-0.2-0.2-0.4l0.5-1.4
				c0.1-0.2,0.2-0.3,0.4-0.2C97.4,24,97.5,24.2,97.5,24.4z M98.6,26C98.5,26,98.5,26,98.6,26c-0.2,0-0.4-0.1-0.4-0.2L97.9,25h-0.1
				c-0.2,0-0.3-0.1-0.3-0.3c0-0.1,0.1-0.3,0.2-0.3l-0.5-1.6c-0.1-0.2,0-0.4,0.2-0.4c0.2-0.1,0.4,0,0.4,0.2l0.9,2.9
				C98.8,25.8,98.7,25.9,98.6,26z"/>
			<path class="st1" d="M101.5,22.8c0,0.2-0.1,0.3-0.3,0.3h-0.5v2.6c0,0.2-0.2,0.3-0.3,0.3c-0.2,0-0.3-0.1-0.3-0.3v-2.6h-0.5
				c-0.2,0-0.3-0.1-0.3-0.3c0-0.2,0.1-0.3,0.3-0.3h1.7C101.4,22.5,101.5,22.6,101.5,22.8z"/>
			<path class="st1" d="M102.3,25.7v-2.9c0-0.2,0.1-0.3,0.3-0.3c0.2,0,0.3,0.1,0.3,0.3v2.9c0,0.2-0.1,0.3-0.3,0.3
				C102.5,26,102.3,25.9,102.3,25.7z"/>
			<path class="st1" d="M104.1,23.7c0-0.7,0.6-1.2,1.3-1.2c0.7,0,1.3,0.5,1.3,1.2c0,0.2-0.1,0.3-0.3,0.3c-0.2,0-0.3-0.1-0.3-0.3
				c0-0.3-0.3-0.6-0.6-0.6c-0.3,0-0.6,0.2-0.6,0.6c0,0.2-0.1,0.3-0.3,0.3C104.3,24,104.1,23.8,104.1,23.7z M106.6,24.5v0.2
				c0,0.7-0.6,1.3-1.3,1.3c-0.7,0-1.3-0.6-1.3-1.3v-0.2c0-0.2,0.1-0.3,0.3-0.3c0.2,0,0.3,0.1,0.3,0.3v0.2c0,0.3,0.3,0.6,0.6,0.6
				c0.3,0,0.6-0.3,0.6-0.6v-0.2c0-0.2,0.1-0.3,0.3-0.3C106.5,24.2,106.6,24.3,106.6,24.5z"/>
			<path class="st1" d="M109.2,25.8L108,24v1.7c0,0.2-0.1,0.3-0.3,0.3c-0.2,0-0.3-0.1-0.3-0.3v-2.9c0-0.1,0.1-0.3,0.2-0.3
				c0.1,0,0.3,0,0.4,0.1l1.1,1.9v-1.7c0-0.2,0.1-0.3,0.3-0.3c0.2,0,0.3,0.1,0.3,0.3v2.9c0,0.1-0.1,0.3-0.2,0.3c0,0-0.1,0-0.1,0
				C109.4,26,109.2,25.9,109.2,25.8z"/>
		</g>
		<path class="st1" d="M114.1,25.7c0,0.1-0.1,0.3-0.2,0.3c0,0-0.1,0-0.1,0c-0.1,0-0.2-0.1-0.3-0.2c0,0,0-0.1-0.1-0.1
			c-0.3-0.6-0.6-1.3-0.7-1.5c0,0,0,0,0,0c-0.1,0.1-0.2,0.3-0.2,0.5c0,0.3,0.2,0.6,0.5,0.7c0.2,0.1,0.3,0.2,0.2,0.4
			c0,0.1-0.2,0.2-0.3,0.2c0,0-0.1,0-0.1,0c-0.6-0.2-1-0.7-1-1.3c0-0.4,0.2-0.8,0.5-1.1c-0.1-0.1-0.1-0.3-0.1-0.4
			c0-0.4,0.3-0.7,0.7-0.7c0.2,0,0.4,0.1,0.5,0.2c0.1,0.1,0.1,0.3,0,0.5c-0.1,0.1-0.3,0.1-0.5,0c0,0,0,0,0,0c0,0-0.1,0-0.1,0.1
			c0,0.1,0.1,0.3,0.2,0.5c0,0.1,0.1,0.1,0.1,0.2c0.1,0.1,0.3,0.6,0.5,1c0-0.1,0.1-0.2,0.1-0.3c0-0.2,0.1-0.3,0.3-0.3
			c0.2,0,0.3,0.1,0.3,0.3C114.5,25.1,114.3,25.4,114.1,25.7z"/>
		<g>
			<path class="st1" d="M118,22.8c0,0.2-0.1,0.3-0.3,0.3h-0.5v2.6c0,0.2-0.1,0.3-0.3,0.3c-0.2,0-0.3-0.1-0.3-0.3v-2.6h-0.5
				c-0.2,0-0.3-0.1-0.3-0.3c0-0.2,0.1-0.3,0.3-0.3h1.7C117.8,22.4,118,22.6,118,22.8z"/>
			<path class="st1" d="M121,25.6c0,0.2-0.1,0.3-0.3,0.3h-1.6c-0.2,0-0.3-0.1-0.3-0.3v-2.9c0-0.2,0.2-0.3,0.3-0.3h1.6
				c0.2,0,0.3,0.1,0.3,0.3c0,0.2-0.1,0.3-0.3,0.3h-1.3v0.8h0.6c0.2,0,0.3,0.1,0.3,0.3c0,0.2-0.1,0.3-0.3,0.3h-0.6v0.8h1.3
				C120.9,25.3,121,25.5,121,25.6z"/>
			<path class="st1" d="M121.7,24.7v-1c0-0.7,0.6-1.3,1.3-1.3c0.7,0,1.3,0.6,1.3,1.3c0,0.2-0.1,0.3-0.3,0.3c-0.2,0-0.3-0.1-0.3-0.3
				c0-0.3-0.3-0.6-0.6-0.6c-0.3,0-0.6,0.3-0.6,0.6v1c0,0.3,0.3,0.6,0.6,0.6c0.3,0,0.6-0.3,0.6-0.6c0-0.2,0.1-0.3,0.3-0.3
				c0.2,0,0.3,0.1,0.3,0.3c0,0.7-0.6,1.3-1.3,1.3C122.2,26,121.7,25.4,121.7,24.7z"/>
			<path class="st1" d="M126.5,24.3c0,0.2-0.1,0.3-0.3,0.3h-0.5v1c0,0.2-0.1,0.3-0.3,0.3c-0.2,0-0.3-0.1-0.3-0.3v-2.9
				c0-0.2,0.1-0.3,0.3-0.3c0.2,0,0.3,0.1,0.3,0.3V24h0.5C126.3,24,126.5,24.1,126.5,24.3z M127.3,22.8v2.9c0,0.2-0.2,0.3-0.3,0.3
				c-0.2,0-0.3-0.1-0.3-0.3v-2.9c0-0.2,0.1-0.3,0.3-0.3C127.1,22.4,127.3,22.6,127.3,22.8z"/>
			<path class="st1" d="M130.2,25.8l-1.1-1.9v1.7c0,0.2-0.1,0.3-0.3,0.3c-0.2,0-0.3-0.1-0.3-0.3v-2.9c0-0.1,0.1-0.3,0.2-0.3
				c0.1,0,0.3,0,0.4,0.1l1.1,1.9v-1.7c0-0.2,0.1-0.3,0.3-0.3c0.2,0,0.3,0.1,0.3,0.3v2.9c0,0.1-0.1,0.3-0.2,0.3c0,0-0.1,0-0.1,0
				C130.4,26,130.3,25.9,130.2,25.8z"/>
			<path class="st1" d="M131.6,23.6c0-0.7,0.6-1.2,1.3-1.2c0.7,0,1.3,0.5,1.3,1.2c0,0.2-0.1,0.3-0.3,0.3c-0.2,0-0.3-0.1-0.3-0.3
				c0-0.3-0.3-0.6-0.6-0.6c-0.3,0-0.6,0.2-0.6,0.6c0,0.2-0.1,0.3-0.3,0.3C131.7,24,131.6,23.8,131.6,23.6z M134.1,24.5v0.2
				c0,0.7-0.6,1.3-1.3,1.3c-0.7,0-1.3-0.6-1.3-1.3v-0.2c0-0.2,0.2-0.3,0.3-0.3c0.2,0,0.3,0.1,0.3,0.3v0.2c0,0.3,0.3,0.6,0.6,0.6
				c0.3,0,0.6-0.3,0.6-0.6v-0.2c0-0.2,0.1-0.3,0.3-0.3C133.9,24.2,134.1,24.3,134.1,24.5z"/>
			<path class="st1" d="M136.9,25.6c0,0.2-0.1,0.3-0.3,0.3h-1.3c-0.2,0-0.3-0.1-0.3-0.3v-2.9c0-0.2,0.1-0.3,0.3-0.3
				c0.2,0,0.3,0.1,0.3,0.3v2.5h0.9C136.7,25.3,136.9,25.5,136.9,25.6z"/>
			<path class="st1" d="M137.2,23.6c0-0.7,0.6-1.2,1.3-1.2c0.7,0,1.3,0.5,1.3,1.2c0,0.2-0.2,0.3-0.3,0.3c-0.2,0-0.3-0.1-0.3-0.3
				c0-0.3-0.3-0.6-0.6-0.6c-0.3,0-0.6,0.2-0.6,0.6c0,0.2-0.1,0.3-0.3,0.3C137.4,24,137.2,23.8,137.2,23.6z M139.7,24.5v0.2
				c0,0.7-0.6,1.3-1.3,1.3c-0.7,0-1.3-0.6-1.3-1.3v-0.2c0-0.2,0.2-0.3,0.3-0.3c0.2,0,0.3,0.1,0.3,0.3v0.2c0,0.3,0.3,0.6,0.6,0.6
				c0.3,0,0.6-0.3,0.6-0.6v-0.2c0-0.2,0.1-0.3,0.3-0.3C139.6,24.2,139.7,24.3,139.7,24.5z"/>
			<path class="st1" d="M140.5,24.7v-1.1c0-0.7,0.6-1.3,1.3-1.3c0.7,0,1.1,0.4,1.2,1.1c0,0.2-0.1,0.3-0.3,0.4
				c-0.2,0-0.3-0.1-0.4-0.3c-0.1-0.3-0.3-0.5-0.6-0.5c-0.3,0-0.6,0.3-0.6,0.6v1.1c0,0.3,0.3,0.6,0.6,0.6c0.3,0,0.6-0.2,0.6-0.5h-0.5
				c-0.2,0-0.3-0.1-0.3-0.3c0-0.2,0.1-0.3,0.3-0.3h0.8c0.2,0,0.3,0.1,0.3,0.3v0.3c0,0.7-0.6,1.3-1.3,1.3
				C141,26,140.5,25.4,140.5,24.7z"/>
			<path class="st1" d="M146,22.9l-0.8,1.5v1.2c0,0.2-0.1,0.3-0.3,0.3c-0.2,0-0.3-0.1-0.3-0.3v-1.2l-0.8-1.5c-0.1-0.2,0-0.4,0.1-0.4
				c0.2-0.1,0.4,0,0.4,0.1l0.6,1.1l0.6-1.1c0.1-0.2,0.3-0.2,0.4-0.1C146,22.6,146.1,22.8,146,22.9z"/>
		</g>
	</g>
</g>
</svg>
